<svg xmlns="http://www.w3.org/2000/svg" width="70.0448mm" height="28.1889mm" viewBox="0 0 198.5523 79.9055"><defs><style>.cls-1{fill:#dbcf46;}.cls-2{fill:#c5ba57;}.cls-3{fill:#b3aa5e;}.cls-4{fill:#838f8e;}.cls-5{fill:#064f9b;}.cls-6{fill:#38649e;}.cls-7{fill:#5e84a6;}.cls-8{fill:#f4e52e;}.cls-9{fill:#5c7a9a;}.cls-10{fill:#1e3461;}.cls-11{fill:#fff;}</style></defs><title>eurogeo-full-colour</title><g id="Layer_2" data-name="Layer 2"><g id="Layer_1-2" data-name="Layer 1"><polygon class="cls-1" points="110.894 31.222 118.728 23.008 111.87 22.33 110.894 31.222"/><polygon class="cls-2" points="118.728 23.008 123.851 26.903 110.948 31.222 118.728 23.008"/><polygon class="cls-1" points="118.728 23.008 122.848 15.527 123.81 26.781 118.728 23.008"/><polygon class="cls-2" points="123.851 26.863 130.994 24.49 122.848 15.581 123.851 26.863"/><polygon class="cls-2" points="131.008 24.552 133.555 15.5 122.902 15.581 131.008 24.552"/><polygon class="cls-3" points="133.555 15.5 140.928 17.397 131.062 24.498 133.555 15.5"/><polygon class="cls-3" points="133.555 15.5 140.928 17.397 142.474 6.988 133.555 15.5"/><polygon class="cls-4" points="142.474 6.947 150.429 10.959 140.928 17.397 142.474 6.947"/><polygon class="cls-5" points="150.416 10.973 156.406 18.339 159.165 2.637 150.416 10.973"/><polygon class="cls-6" points="140.983 17.397 150.416 11 156.393 18.346 140.983 17.397"/><polygon class="cls-6" points="159.165 2.617 166.68 7.964 156.406 18.346 159.165 2.617"/><polygon class="cls-5" points="166.687 7.944 171.722 9.752 156.406 18.346 166.687 7.944"/><polygon class="cls-6" points="166.666 7.944 174.869 0.526 171.613 9.752 166.666 7.944"/><path class="cls-7" d="M159.1849,2.617l7.4612,5.3468,8.23-7.4451S165.162,1.1329,159.1849,2.617Z"/><path class="cls-7" d="M142.4939,6.9677l7.922,3.9779,8.769-8.3286A140.0555,140.0555,0,0,0,142.4939,6.9677Z"/><path class="cls-1" d="M133.5554,15.5l8.9385-8.5319a121.94,121.94,0,0,0-19.5915,8.5861Z"/><path class="cls-8" d="M122.9024,15.5538A118.2452,118.2452,0,0,0,111.87,22.3305l6.858.6777Z"/><path class="cls-8" d="M111.87,22.3305s-10.0025,7.1833-12.5234,10.0566l11.5475-1.1656Z"/><polygon class="cls-6" points="174.868 0.524 182.849 9.434 187.302 4.162 174.85 0.519 174.868 0.524"/><path class="cls-9" d="M198.5523.5764c-9.5582-1.2647-23.68-.0539-23.68-.0539l12.4492,3.66Z"/><polygon class="cls-5" points="171.627 9.779 182.931 9.454 174.869 0.534 171.627 9.779"/><path class="cls-1" d="M84.69,49.74c-1.4695,1.8589-13.148,16.8671-17.8179,30.166,0,0,8.4469-16.8361,20.0335-27.9518A8.771,8.771,0,0,1,84.69,49.74Z"/><polygon class="cls-8" points="170.98 30.198 171.727 32.5 174.15 32.5 172.19 33.926 172.938 36.23 170.98 34.805 169.02 36.23 169.77 33.926 167.807 32.5 170.23 32.5 170.98 30.198"/><path class="cls-10" d="M86.9737,44.7347a6.3043,6.3043,0,0,1,2.023-4.8418,6.2749,6.2749,0,0,0-2.0361,4.84,6.63,6.63,0,0,0,1.4365,4.26A6.6678,6.6678,0,0,1,86.9737,44.7347Z"/><path class="cls-10" d="M95.0327,39.8918a6.28,6.28,0,0,1,2.0188,4.8429,6.6143,6.6143,0,0,1-1.4863,4.3376,6.5772,6.5772,0,0,0,1.5-4.34A6.2506,6.2506,0,0,0,95.0327,39.8918Z"/><path class="cls-11" d="M91.9983,37.49c-4.0358,0-6.6406,3.2058-6.6406,7.242s2.6048,7.27,6.6406,7.27c4.0934,0,6.6694-3.2344,6.6694-7.27S96.0917,37.49,91.9983,37.49Zm5.0665,7.242a6.5772,6.5772,0,0,1-1.5,4.34,4.7654,4.7654,0,0,1-7.1681-.08,6.63,6.63,0,0,1-1.4365-4.26,6.2749,6.2749,0,0,1,2.0361-4.84,4.5894,4.5894,0,0,1,3.0016-1.0572,4.6485,4.6485,0,0,1,3.0344,1.0561A6.2506,6.2506,0,0,1,97.0648,44.7324Z"/><path class="cls-8" d="M0,44.7323c0-4.0076,2.8337-7.242,6.6694-7.242,4.2077,0,6.5262,3.3491,6.5262,7.3278v.4006H1.6315c.1431,3.0056,2.1467,5.4958,5.41,5.4958a6.0752,6.0752,0,0,0,4.5227-1.9177l.7728.9733a7.1319,7.1319,0,0,1-5.41,2.2325C2.891,52.0026,0,48.9972,0,44.7323Zm6.6407-5.9539c-3.2632,0-4.8947,2.8625-5.0092,5.2668H11.6786A5.0687,5.0687,0,0,0,6.6407,38.7784Z"/><path class="cls-8" d="M25.6471,51.6592V49.6268a7.0139,7.0139,0,0,1-4.98,2.3758c-2.8339,0-4.3508-1.3167-4.3508-4.4368V37.8337h1.4883v9.3888c0,2.6905,1.3453,3.4348,3.3491,3.4348a5.978,5.978,0,0,0,4.4939-2.29V37.8337h1.4884V51.6592Z"/><path class="cls-8" d="M31.0575,51.6592V37.8337h1.4884V40.21a5.94,5.94,0,0,1,4.6658-2.662V39.179a3.1457,3.1457,0,0,0-.7443-.0572,5.2683,5.2683,0,0,0-3.9215,2.4619V51.6592Z"/><path class="cls-8" d="M38.614,44.7323c0-4.0361,2.6046-7.242,6.6406-7.242,4.0934,0,6.6694,3.2059,6.6694,7.242s-2.576,7.27-6.6694,7.27C41.2186,52.0026,38.614,48.7682,38.614,44.7323Zm11.7071,0c0-3.0628-1.8033-5.8967-5.0665-5.8967-3.2058,0-5.0377,2.8339-5.0377,5.8967,0,3.0912,1.8319,5.925,5.0377,5.925C48.5178,50.6573,50.3211,47.8235,50.3211,44.7323Z"/><path class="cls-11" d="M55.0733,55.18l.8587-1.1448a5.2983,5.2983,0,0,0,4.58,1.9466c2.5188,0,4.7229-1.26,4.7229-4.4368V49.3692a5.9882,5.9882,0,0,1-4.8089,2.5762c-3.6638,0-6.1827-2.7767-6.1827-7.2131,0-4.3795,2.5189-7.242,6.1827-7.242a5.8685,5.8685,0,0,1,4.8089,2.5763V37.8337h1.517V51.5159c0,4.2366-2.8624,5.7535-6.24,5.7535A6.6356,6.6356,0,0,1,55.0733,55.18Zm10.1616-7.0987V41.3547a5.5627,5.5627,0,0,0-4.5512-2.5191c-3.0629,0-4.8375,2.5476-4.8375,5.8967S57.6208,50.6,60.6837,50.6A5.5634,5.5634,0,0,0,65.2349,48.0811Z"/><path class="cls-11" d="M69.8435,44.7323c0-4.0076,2.8337-7.242,6.6694-7.242,4.2077,0,6.5262,3.3491,6.5262,7.3278v.4006H71.475c.1431,3.0056,2.1467,5.4958,5.41,5.4958a6.0752,6.0752,0,0,0,4.5227-1.9177l.7728.9733a7.1319,7.1319,0,0,1-5.41,2.2325C72.7345,52.0026,69.8435,48.9972,69.8435,44.7323Zm6.6407-5.9539c-3.2632,0-4.8947,2.8625-5.0092,5.2668H81.5221A5.0687,5.0687,0,0,0,76.4842,38.7784Z"/><path class="cls-11" d="M101.817,55.18l.8588-1.1448a5.2978,5.2978,0,0,0,4.58,1.9466c2.519,0,4.7231-1.26,4.7231-4.4368V49.3692a5.9882,5.9882,0,0,1-4.8089,2.5762c-3.6639,0-6.1828-2.7767-6.1828-7.2131,0-4.3795,2.5189-7.242,6.1828-7.242a5.8686,5.8686,0,0,1,4.8089,2.5763V37.8337h1.517V51.5159c0,4.2366-2.8625,5.7535-6.24,5.7535A6.6353,6.6353,0,0,1,101.817,55.18Zm10.1616-7.0987V41.3547a5.5629,5.5629,0,0,0-4.5513-2.5191c-3.0628,0-4.8375,2.5476-4.8375,5.8967S104.3645,50.6,107.4273,50.6A5.5636,5.5636,0,0,0,111.9786,48.0811Z"/><path class="cls-11" d="M117.3886,51.6592V37.8337h1.4884V40.21a5.94,5.94,0,0,1,4.6658-2.662V39.179a3.1457,3.1457,0,0,0-.7443-.0572,5.2683,5.2683,0,0,0-3.9215,2.4619V51.6592Z"/><path class="cls-11" d="M134.5343,51.6592V50.0277a6.02,6.02,0,0,1-4.6944,1.9749,4.6293,4.6293,0,0,1-4.8375-4.6083,4.5723,4.5723,0,0,1,4.8375-4.58,5.98,5.98,0,0,1,4.6944,1.9752V41.9843c0-2.061-1.66-3.1773-3.7213-3.1773a5.3779,5.3779,0,0,0-4.3222,2.0324l-.83-1.03a6.7138,6.7138,0,0,1,5.3241-2.3186c2.8051,0,5.0378,1.3453,5.0378,4.4368v9.7321Zm0-2.7192V45.9058a5.1912,5.1912,0,0,0-4.1792-1.9178,3.4526,3.4526,0,0,0-3.7784,3.4349c0,1.9463,1.4884,3.4063,3.7784,3.4063A5.1687,5.1687,0,0,0,134.5343,48.94Z"/><path class="cls-11" d="M141.4329,49.4264v7.5h-1.4884V37.8337h1.4884v2.1754a5.9409,5.9409,0,0,1,4.8088-2.5188c3.6925,0,6.1828,2.8053,6.1828,7.242,0,4.4079-2.49,7.27-6.1828,7.27A5.908,5.908,0,0,1,141.4329,49.4264Zm9.3887-4.6941c0-3.3491-1.746-5.8967-4.8375-5.8967a5.5872,5.5872,0,0,0-4.5512,2.4616v6.8414a5.6345,5.6345,0,0,0,4.5512,2.5187C149.0756,50.6573,150.8216,48.0811,150.8216,44.7323Z"/><path class="cls-11" d="M164.79,51.6592V42.2419c0-2.662-1.3453-3.4063-3.3491-3.4063a5.9187,5.9187,0,0,0-4.4939,2.3758V51.6592h-1.4884V32.5669h1.4884v7.3564a7.0085,7.0085,0,0,1,4.9806-2.433c2.8052,0,4.3508,1.3167,4.3508,4.4368v9.7321Z"/><path class="cls-11" d="M170.2,51.6592V37.8337h1.4884V51.6592Z"/><path class="cls-11" d="M174.8086,44.7323c0-4.0361,2.662-7.242,6.7266-7.242a5.7052,5.7052,0,0,1,4.8947,2.3472l-1.03.9158a4.3747,4.3747,0,0,0-3.7784-1.9177c-3.2346,0-5.21,2.5762-5.21,5.8967s1.975,5.925,5.21,5.925A4.4021,4.4021,0,0,0,185.4,48.711l1.03.9158a5.6548,5.6548,0,0,1-4.8947,2.3758C177.4706,52.0026,174.8086,48.7682,174.8086,44.7323Z"/><path class="cls-11" d="M187.8327,49.8273l.8872-1.1163a5.7587,5.7587,0,0,0,4.4653,2.0321c2.3186,0,3.6926-1.2021,3.6926-2.805,0-3.7785-8.73-1.66-8.73-6.612,0-2.1185,1.8033-3.8358,4.9234-3.8358a6.356,6.356,0,0,1,4.9518,2.0324l-.83,1.0591a5.0362,5.0362,0,0,0-4.1217-1.8319c-2.1469,0-3.4636,1.0876-3.4636,2.5187,0,3.4637,8.73,1.3453,8.73,6.6695,0,2.2325-1.7174,4.0645-5.181,4.0645A6.6953,6.6953,0,0,1,187.8327,49.8273Z"/><path class="cls-8" d="M98.5248,39.14l.8217-6.7528c-.4741.3612-3.46,3.2529-4.4474,4.2124A8.7355,8.7355,0,0,1,98.5248,39.14Z"/><path class="cls-1" d="M98.7187,39.3813l12.0669-8.16-11.4425,1.169-.8156,6.7523C98.5933,39.2206,98.6556,39.3012,98.7187,39.3813Z"/></g></g></svg>