<svg width="374" height="96" viewBox="0 0 374 96" fill="none" xmlns="http://www.w3.org/2000/svg">
<g clip-path="url(#clip0_601_1968)">
<path d="M204.591 48.1136V4.67963H234.864V13.221H215.045V21.9896H233.318V30.3039H215.045V39.5722H234.864V48.1136H204.591Z" fill="#012030"/>
<path d="M274.364 4.67963V48.1136H265.5L248.227 23.0346H247.909V48.1136H237.455V4.67963H246.455L263.545 29.6678H263.909V4.67963H274.364Z" fill="#012030"/>
<path d="M290.045 4.67963L299.682 36.4827H300.091L309.818 4.67963H321.545L306.863 48.1136H292.909L278.227 4.67963H290.045Z" fill="#012030"/>
<path d="M325.364 48.1136V4.67963H343.273C346.546 4.67963 349.364 5.27026 351.727 6.45151C354.091 7.63277 355.955 9.3138 357.227 11.4491C358.546 13.6299 359.182 16.1742 359.182 19.1273C359.182 22.0805 358.5 24.6702 357.227 26.8055C355.909 28.8954 354.046 30.4856 351.591 31.6214C349.182 32.7118 346.318 33.257 343 33.257H331.682V24.9882H341.091C342.682 24.9882 344 24.761 345.091 24.3521C346.182 23.9432 347 23.3072 347.546 22.4439C348.091 21.5807 348.364 20.4903 348.364 19.1273C348.364 17.7643 348.091 16.6739 347.546 15.8107C347 14.9475 346.182 14.266 345.091 13.8117C344 13.3573 342.682 13.1756 341.091 13.1756H335.955V48.1136H325.5H325.364ZM349.136 48.1136L338.546 28.2594H349.773L360.636 48.1136H349.136Z" fill="#012030"/>
<path d="M374 4.67963H363.545V48.1136H374V4.67963Z" fill="#012030"/>
<path d="M205.727 95.3639V55.5192H210.545V73.2835H231.773V55.5192H236.591V95.3639H231.773V77.5542H210.545V95.3639H205.727Z" fill="#012030"/>
<path d="M260.818 83.1879V65.469H265.364V95.3639H260.818V90.2754H260.5C259.773 91.7747 258.682 93.0923 257.227 94.1372C255.773 95.1822 253.909 95.7274 251.636 95.7274C249.773 95.7274 248.091 95.3185 246.682 94.5007C245.227 93.6829 244.091 92.4562 243.273 90.7752C242.455 89.0942 242.045 87.0043 242.045 84.46V65.469H246.591V84.1874C246.591 86.3228 247.227 88.0946 248.455 89.3668C249.682 90.6843 251.273 91.3204 253.182 91.275C254.318 91.275 255.5 91.0024 256.682 90.4117C257.864 89.8211 258.864 88.9579 259.682 87.7312C260.5 86.5499 260.909 85.0052 260.909 83.1424L260.818 83.1879Z" fill="#012030"/>
<path d="M283.863 96C281.954 96 280.409 95.682 279.273 95.0459C278.136 94.4098 277.227 93.6375 276.591 92.8197C275.954 92.0019 275.5 91.3204 275.136 90.7752H274.591V95.3639H270.182V55.5192H274.727V70.2395H275.091C275.409 69.7397 275.909 69.0582 276.5 68.2404C277.091 67.4226 278 66.6957 279.136 66.0596C280.273 65.4236 281.818 65.1055 283.773 65.1055C286.273 65.1055 288.5 65.7416 290.409 67.0137C292.318 68.2858 293.818 70.0577 294.909 72.3748C296 74.6919 296.545 77.4179 296.545 80.5528C296.545 83.6876 296 86.4591 294.954 88.7761C293.863 91.0932 292.409 92.9105 290.5 94.1827C288.591 95.4548 286.409 96.0909 283.909 96.0909L283.863 96ZM283.273 91.8656C285.182 91.8656 286.773 91.3658 288.045 90.3209C289.318 89.2759 290.273 87.9129 290.954 86.1865C291.591 84.46 291.909 82.5518 291.909 80.4165C291.909 78.2811 291.591 76.4184 290.954 74.7373C290.318 73.0563 289.363 71.6933 288.091 70.6938C286.818 69.6943 285.227 69.1945 283.273 69.1945C281.318 69.1945 279.818 69.6488 278.545 70.6029C277.273 71.557 276.318 72.8291 275.682 74.5556C275.045 76.2366 274.682 78.1902 274.682 80.4619C274.682 82.7335 275 84.6872 275.682 86.4136C276.318 88.1401 277.318 89.4576 278.591 90.4572C279.863 91.4567 281.409 91.911 283.273 91.911V91.8656Z" fill="#012030"/>
<path d="M154.636 75.1917C151.227 75.1917 147.818 74.4193 144.682 72.8292C134.045 67.5135 129.5 54.247 134.545 43.2068L143.318 23.9886C144.318 21.7624 146.954 20.7629 149.182 21.8079C151.409 22.8074 152.409 25.4425 151.363 27.6687L142.591 46.8869C139.5 53.611 142.227 61.6981 148.636 64.9238C151.954 66.5594 155.682 66.7866 159.182 65.6053C162.682 64.3786 165.409 61.8344 166.954 58.4723L175.909 38.8452C180.318 28.9408 176.954 18.5367 175.318 14.4931C174.409 12.2215 175.5 9.6318 177.727 8.72314C180 7.81448 182.591 8.90487 183.5 11.1311C185.591 16.2196 189.773 29.4406 183.954 42.4345L175 62.107C172.454 67.6498 167.909 71.8296 162.136 73.8741C159.682 74.7373 157.182 75.1462 154.682 75.1462" fill="#FF9700"/>
<path d="M7.49987 66.832C5.77259 66.832 4.09078 65.787 3.40896 64.0606C1.31805 58.9721 -2.86377 45.7511 2.90896 32.7572L11.8635 13.0847C14.409 7.54189 18.9544 3.31662 24.7271 1.31756C30.4999 -0.726923 36.6817 -0.318026 42.1817 2.40796C52.818 7.72362 57.3635 20.9901 52.3181 32.0303L43.5453 51.2485C42.5453 53.4747 39.909 54.4288 37.6817 53.4293C35.4544 52.4297 34.4544 49.7946 35.4999 47.5684L44.2726 28.3502C47.3635 21.6261 44.6362 13.539 38.2271 10.3133C34.909 8.67771 31.1817 8.40512 27.6817 9.67724C24.2271 10.9039 21.4544 13.4482 19.909 16.8102L10.9544 36.4373C6.54532 46.2963 9.90896 56.7459 11.5453 60.7894C12.4544 63.0611 11.3635 65.6507 9.13623 66.5594C8.59078 66.7866 8.04532 66.8774 7.45441 66.8774" fill="#012030"/>
<path d="M96.9545 72.6929C93.8182 72.6929 90.6364 72.0114 87.7273 70.6938C82.3182 68.2404 78.1364 63.788 76.0454 58.1997C73.9545 52.6115 74.1818 46.5689 76.6364 41.1169L85.5909 21.4898C86.5909 19.2636 89.2273 18.3095 91.4545 19.309C93.6818 20.3086 94.6818 22.9437 93.6364 25.1699L84.6818 44.797C83.1818 48.0681 83.0454 51.7482 84.3182 55.1103C85.5909 58.4723 88.0909 61.1529 91.3636 62.6522C94.6364 64.1514 98.3182 64.2877 101.682 63.0156C105.045 61.7435 107.727 59.2447 109.227 55.9735L126.818 17.4009C129.273 11.9943 133.727 7.85991 139.318 5.76999C144.909 3.68007 150.955 3.90724 156.409 6.36062C167.636 11.4491 172.591 24.7156 167.455 35.9375L158.5 55.5646C157.5 57.7908 154.864 58.7449 152.636 57.7454C150.409 56.7459 149.409 54.1107 150.455 51.8845L159.409 32.2575C162.5 25.4879 159.5 17.4917 152.727 14.4023C145.955 11.3128 137.955 14.3114 134.864 21.0809L117.273 59.6536C114.818 65.0601 110.364 69.1945 104.773 71.2844C102.227 72.2385 99.5909 72.6929 96.9545 72.6929Z" fill="#0097CA"/>
<path d="M39.5911 70.5575C36.4547 70.5575 33.2729 69.876 30.3638 68.5584C19.1366 63.4699 14.182 50.2035 19.3184 38.9815L28.2729 19.3545C29.2729 17.1282 31.9093 16.1287 34.1366 17.1737C36.3638 18.1732 37.3638 20.8083 36.3184 23.0345L27.3638 42.6616C24.2729 49.4311 27.2729 57.4273 34.0456 60.5168C40.8184 63.6062 48.8184 60.6076 51.9093 53.8381L69.5002 15.2655C71.9547 9.85894 76.4093 5.72454 82.0002 3.63462C87.5911 1.5447 93.6366 1.77186 99.0911 4.22525C104.5 6.67863 108.682 11.1311 110.773 16.7193C112.864 22.3076 112.637 28.3502 110.182 33.8022L101.227 53.4292C100.227 55.6554 97.5911 56.655 95.3638 55.61C93.1366 54.6105 92.1366 51.9754 93.182 49.7491L102.137 30.1221C103.637 26.8509 103.773 23.1708 102.5 19.8088C101.227 16.4467 98.7275 13.7662 95.4547 12.2669C92.182 10.7676 88.5002 10.6313 85.1366 11.9034C81.7729 13.1756 79.0911 15.6744 77.5911 18.9456L60.0002 57.5182C57.5457 62.9247 53.0911 67.0591 47.5002 69.1491C44.9547 70.1031 42.3184 70.5575 39.682 70.5575" fill="#8DF099"/>
</g>
<defs>
<clipPath id="clip0_601_1968">
<rect width="374" height="96" fill="white"/>
</clipPath>
</defs>
</svg>
